<svg width="236" height="64" viewBox="0 0 236 64" fill="none" xmlns="http://www.w3.org/2000/svg">
<path d="M75.3003 30.1206C75.3003 27.7144 75.8307 25.5652 76.8916 23.673C77.9755 21.7574 79.44 20.274 81.2849 19.2227C83.153 18.1481 85.2401 17.6108 87.5463 17.6108C90.2446 17.6108 92.6085 18.3116 94.638 19.7133C96.6675 21.1149 98.0858 23.0539 98.893 25.5302H93.3234C92.7699 24.3621 91.9858 23.4861 90.9711 22.9021C89.9794 22.318 88.8263 22.026 87.5117 22.026C86.105 22.026 84.8481 22.3648 83.7411 23.0422C82.6571 23.6963 81.8038 24.6308 81.1812 25.8455C80.5815 27.0603 80.2817 28.4853 80.2817 30.1206C80.2817 31.7325 80.5815 33.1575 81.1812 34.3956C81.8038 35.6104 82.6571 36.5565 83.7411 37.234C84.8481 37.8881 86.105 38.2151 87.5117 38.2151C88.8263 38.2151 89.9794 37.9231 90.9711 37.3391C91.9858 36.7317 92.7699 35.844 93.3234 34.676H98.893C98.0858 37.1756 96.6675 39.1262 94.638 40.5279C92.6316 41.9062 90.2677 42.5953 87.5463 42.5953C85.2401 42.5953 83.153 42.0697 81.2849 41.0184C79.44 39.9438 77.9755 38.4604 76.8916 36.5682C75.8307 34.676 75.3003 32.5268 75.3003 30.1206Z" fill="white"/>
<path d="M101.784 32.6085C101.784 30.6462 102.165 28.9058 102.926 27.3874C103.71 25.8689 104.759 24.7008 106.074 23.8832C107.411 23.0656 108.899 22.6568 110.536 22.6568C111.966 22.6568 113.212 22.9488 114.272 23.5328C115.356 24.1168 116.221 24.8527 116.867 25.7404V22.9721H121.745V42.3851H116.867V39.5467C116.244 40.4578 115.379 41.217 114.272 41.8244C113.188 42.4084 111.932 42.7004 110.502 42.7004C108.887 42.7004 107.411 42.2799 106.074 41.4389C104.759 40.5979 103.71 39.4182 102.926 37.8998C102.165 36.3579 101.784 34.5942 101.784 32.6085ZM116.867 32.6786C116.867 31.4872 116.636 30.471 116.175 29.63C115.714 28.7656 115.091 28.1115 114.307 27.6677C113.523 27.2005 112.681 26.9669 111.782 26.9669C110.882 26.9669 110.052 27.1888 109.291 27.6326C108.53 28.0765 107.907 28.7306 107.423 29.595C106.962 30.436 106.731 31.4405 106.731 32.6085C106.731 33.7766 106.962 34.8044 107.423 35.6922C107.907 36.5565 108.53 37.2223 109.291 37.6895C110.075 38.1567 110.905 38.3903 111.782 38.3903C112.681 38.3903 113.523 38.1684 114.307 37.7246C115.091 37.2573 115.714 36.6032 116.175 35.7622C116.636 34.8979 116.867 33.87 116.867 32.6786Z" fill="white"/>
<path d="M137.095 22.6918C139.378 22.6918 141.223 23.4277 142.63 24.8994C144.037 26.3478 144.74 28.3802 144.74 30.9966V42.3851H139.897V31.6624C139.897 30.1206 139.516 28.9409 138.755 28.1232C137.994 27.2822 136.956 26.8617 135.642 26.8617C134.304 26.8617 133.243 27.2822 132.459 28.1232C131.698 28.9409 131.318 30.1206 131.318 31.6624V42.3851H126.475V22.9721H131.318V25.39C131.963 24.549 132.782 23.8949 133.774 23.4277C134.789 22.9371 135.896 22.6918 137.095 22.6918Z" fill="white"/>
<path d="M148.1 32.6085C148.1 30.6462 148.481 28.9058 149.242 27.3874C150.026 25.8689 151.087 24.7008 152.424 23.8832C153.762 23.0656 155.249 22.6568 156.887 22.6568C158.132 22.6568 159.32 22.9371 160.45 23.4978C161.58 24.0351 162.479 24.7592 163.148 25.6703V16.4544H168.06V42.3851H163.148V39.5117C162.549 40.4695 161.707 41.2404 160.623 41.8244C159.539 42.4084 158.282 42.7004 156.852 42.7004C155.238 42.7004 153.762 42.2799 152.424 41.4389C151.087 40.5979 150.026 39.4182 149.242 37.8998C148.481 36.3579 148.1 34.5942 148.1 32.6085ZM163.183 32.6786C163.183 31.4872 162.952 30.471 162.491 29.63C162.03 28.7656 161.407 28.1115 160.623 27.6677C159.839 27.2005 158.997 26.9669 158.098 26.9669C157.198 26.9669 156.368 27.1888 155.607 27.6326C154.846 28.0765 154.223 28.7306 153.739 29.595C153.278 30.436 153.047 31.4405 153.047 32.6085C153.047 33.7766 153.278 34.8044 153.739 35.6922C154.223 36.5565 154.846 37.2223 155.607 37.6895C156.391 38.1567 157.221 38.3903 158.098 38.3903C158.997 38.3903 159.839 38.1684 160.623 37.7246C161.407 37.2573 162.03 36.6032 162.491 35.7622C162.952 34.8979 163.183 33.87 163.183 32.6786Z" fill="white"/>
<path d="M177.634 16.4544V42.3851H172.791V16.4544H177.634Z" fill="white"/>
<path d="M200.234 32.2581C200.234 32.9589 200.188 33.5897 200.096 34.1503H186.086C186.201 35.552 186.685 36.65 187.538 37.4442C188.392 38.2385 189.441 38.6356 190.686 38.6356C192.485 38.6356 193.765 37.853 194.526 36.2879H199.75C199.196 38.1567 198.136 39.6986 196.567 40.9133C194.999 42.1047 193.073 42.7004 190.79 42.7004C188.945 42.7004 187.285 42.2916 185.809 41.474C184.356 40.633 183.214 39.4533 182.384 37.9348C181.577 36.4163 181.173 34.6643 181.173 32.6786C181.173 30.6696 181.577 28.9058 182.384 27.3874C183.191 25.8689 184.321 24.7008 185.774 23.8832C187.227 23.0656 188.899 22.6568 190.79 22.6568C192.612 22.6568 194.238 23.0539 195.668 23.8482C197.121 24.6424 198.239 25.7754 199.023 27.2472C199.831 28.6956 200.234 30.3659 200.234 32.2581ZM195.218 30.8564C195.195 29.595 194.745 28.5904 193.869 27.8429C192.993 27.072 191.92 26.6865 190.652 26.6865C189.453 26.6865 188.438 27.0603 187.608 27.8078C186.8 28.532 186.305 29.5482 186.12 30.8564H195.218Z" fill="white"/>
<path d="M202.524 32.6085C202.524 30.6462 202.904 28.9058 203.665 27.3874C204.45 25.8689 205.499 24.7008 206.813 23.8832C208.151 23.0656 209.639 22.6568 211.276 22.6568C212.706 22.6568 213.951 22.9488 215.012 23.5328C216.096 24.1168 216.961 24.8527 217.607 25.7404V22.9721H222.484V42.3851H217.607V39.5467C216.984 40.4578 216.119 41.217 215.012 41.8244C213.928 42.4084 212.671 42.7004 211.241 42.7004C209.627 42.7004 208.151 42.2799 206.813 41.4389C205.499 40.5979 204.45 39.4182 203.665 37.8998C202.904 36.3579 202.524 34.5942 202.524 32.6085ZM217.607 32.6786C217.607 31.4872 217.376 30.471 216.915 29.63C216.453 28.7656 215.831 28.1115 215.047 27.6677C214.263 27.2005 213.421 26.9669 212.521 26.9669C211.622 26.9669 210.792 27.1888 210.031 27.6326C209.27 28.0765 208.647 28.7306 208.163 29.595C207.701 30.436 207.471 31.4405 207.471 32.6085C207.471 33.7766 207.701 34.8044 208.163 35.6922C208.647 36.5565 209.27 37.2223 210.031 37.6895C210.815 38.1567 211.645 38.3903 212.521 38.3903C213.421 38.3903 214.263 38.1684 215.047 37.7246C215.831 37.2573 216.453 36.6032 216.915 35.7622C217.376 34.8979 217.607 33.87 217.607 32.6786Z" fill="white"/>
<path d="M236.001 27.0019H232.645V42.3851H227.733V27.0019H225.554V22.9721H227.733V21.991C227.733 19.6082 228.402 17.8561 229.74 16.7348C231.077 15.6135 233.095 15.0878 235.793 15.1579V19.2928C234.617 19.2694 233.799 19.468 233.337 19.8885C232.876 20.309 232.645 21.0682 232.645 22.1662V22.9721H236.001V27.0019Z" fill="white"/>
<g clip-path="url(#clip0_2723_768)">
<mask id="mask0_2723_768" style="mask-type:alpha" maskUnits="userSpaceOnUse" x="0" y="0" width="64" height="64">
<circle cx="31.681" cy="31.681" r="31.681" fill="#F578A5"/>
</mask>
<g mask="url(#mask0_2723_768)">
<circle cx="31.681" cy="31.681" r="31.681" fill="white"/>
<path d="M45.8501 48.4729L46.0591 48.4905C47.0904 48.6283 47.8792 49.5108 47.8794 50.5725V63.5959H17.1079V49.6672C17.1079 48.4788 18.0931 47.5272 19.2808 47.5676L45.8501 48.4729Z" fill="#272727" stroke="#272727" stroke-width="1.38604"/>
<g clip-path="url(#clip1_2723_768)">
<path d="M23.2124 22.246C29.6688 13.269 26.8916 5.96203 26.8994 5.95336C26.7625 5.58743 26.9482 5.17989 27.3141 5.043C27.4987 4.97395 27.7037 4.98508 27.8798 5.07362C39.5324 10.6495 44.5468 17.8475 45.507 24.3552C45.8887 26.8836 45.6501 29.4669 44.8117 31.8827C44.0434 34.1117 42.7637 36.1298 41.0751 37.7752C37.8269 40.9121 33.2876 42.3582 28.8075 40.8922C27.6615 40.5183 26.5801 39.9698 25.6015 39.2659C23.6383 37.857 22.1492 35.8852 21.3312 33.6114C20.4632 31.1795 20.4356 28.527 21.2528 26.0777C21.7042 24.7068 22.3652 23.4142 23.2124 22.246Z" fill="#272727"/>
<path d="M27.0411 6.18507C26.7573 5.91662 26.7448 5.4689 27.0133 5.18513C27.2817 4.90136 27.7294 4.88884 28.0132 5.15729C28.0341 5.17704 28.0537 5.19803 28.072 5.22019C28.098 5.24359 33.724 11.1408 34.5278 22.5389L34.5361 22.6458C34.7097 25.3098 34.6239 27.9844 34.2804 30.6318L38.1273 27.6837C38.4496 27.4627 38.8899 27.5448 39.1108 27.867C39.3107 28.1587 39.2646 28.5532 39.0027 28.7909L33.9752 32.632C32.8496 39.2491 28.8819 48.6103 34.1344 54.4693C34.3874 54.767 34.3511 55.2134 34.0534 55.4664C33.77 55.7072 33.3486 55.6875 33.089 55.4212C26.7904 48.4007 31.3736 39.7035 32.6279 32.1825L32.6444 32.0771C33.1544 29.0841 33.3292 26.0437 33.1655 23.0121L28.6437 19.6989C28.3212 19.4785 28.2384 19.0383 28.4589 18.7158C28.6794 18.3932 29.1195 18.3105 29.4421 18.531C29.4554 18.5401 29.4685 18.5497 29.4812 18.5597L32.9848 21.1392C31.8919 11.2588 27.0616 6.20876 27.0411 6.18507Z" fill="white"/>
</g>
</g>
</g>
<defs>
<clipPath id="clip0_2723_768">
<rect width="63.362" height="63.362" fill="white"/>
</clipPath>
<clipPath id="clip1_2723_768">
<rect width="38.8832" height="38.8832" fill="white" transform="translate(3.73486 31.0383) rotate(-48)"/>
</clipPath>
</defs>
</svg>
